<svg width="65" height="64" xmlns="http://www.w3.org/2000/svg" xmlns:xlink="http://www.w3.org/1999/xlink" xmlns:svgjs="http://svgjs.com/svgjs" viewBox="0.323 0 64.355 64" fill="#cf9d41"><svg xmlns="http://www.w3.org/2000/svg" width="65" height="64" viewBox="1.653 1.062 63.223 62.875"><path paint-order="stroke fill markers" fill-rule="evenodd" d="M33.073 1.062c-17.32 0-31.42 13.635-31.42 31.055 0 17.553 14.1 31.82 31.42 31.82 17.6 0 31.803-14.267 31.803-31.82 0-17.42-14.204-31.055-31.803-31.055zm11.406 20.959c.454-.049 1.197-.268 1.775-.084.454.021.826.049.29.112-.248.13-.62-.028-.91.013.372.117.91.35.744.875 1.074.61-.33 1.342-1.032 1.26.33.041-.702.652-.702.611-.595.203-1.331.203-1.58.57-.285.447.107 1.22-.427 1.057-.213.53-1.03.244-1.386.814.39.488-.391 1.338-.782.57-.356.162-.178.768-.534 1.118.142.255.178.51-.07.68.07-.042.497.383.604.426-.072.212-.214.382-.392.382.178.553-.213 1.15-.533 1.49-.413.34-1.526.68-1.69.765-.98.723-1.592 1.787.11 2.085.054 0 .054 1.295.108 1.333.11.461.382 1.805-.763 1.306-.545-.192-.872-1.267-1.003-1.69-.131-.46-.175-.46-.525-.95-.406.605-.453.17-.71-.127-.259-.911-.634-.836-1.217-1.06-.781.41-1.23.298-1.353-.338-.163.3.163.749.123.92-.205.862-.572.778-.9.195-.53-.553-1.674.626-2.287 0 .041 0 .205.389.327.583-.122.496-.406.208-.645.373-.278.366-.517.75-.758.942.52.96-.04 1.881 0 2.918 0 .767.52 2.246 1.28 2.711.368.211 1.594.296 1.961.127.572-.254.49-.718.695-1.225.204-.55.45-.803 1.062-.846 1.758-.076.69 1.395.203 2.155-.121.55-.162 1.183-.244 1.69.204.084.633.042 1.12.042 0-.169.07-.38.07-.507.14.422.61.55.75.042.164.507.654.887.742 1.479.087.59.71 1.224-.175 1.224-.45 0 .087.955.175 1.125.492.682 1.473 1.024 2.562.614 0 .32-.163 1.322-.762 1.413-.545.091-1.538-.866-1.363-1.345-.043.16-.175.297-.306.388-.437-.49-.897-.695-1.108-1.104-.046-.102-.974-1.597-.539-1.682-1.043.254-2.187-.169-2.718-.464-.858-.465-.98-1.69-2.043-1.52-.723.126-.922.421-1.765.084-.564-.212-1.047-.634-1.612-.93-.644-.38-1.773-.76-2.014-1.605-.242-.675-.162-1.444-.524-2.02-.242-.384-.968-1.152-1.45-1.152.442 0-.292-1.151-.371-1.267-.292-.499-2.013-1.875-1.65-2.726.09-.127-.908-.468-1.09-.51.182.425.228.893.454 1.276.228.425.5.77.772 1.154.5.691 1.143 1.536 1.09 2.38-.59.154-.409-.575-.59-.883-.318-.499-1.18-.499-1.408-1.036.091-.039.136-.039.227-.077.046-.653-1.09-1.198-.908-1.708-.635-.468-.635-1.361-1.09-1.957-.408-.553-1.089-.808-1.679-1.191-.227-.128-1.86-2.085-1.27-2.212-.909.212-1.358-1.98-1.226-2.468 0 0-.091 0-.091-.041.181-.488-.121-3.01.59-3.051-.5.04-.63-1.251-.5-1.505.091-.084.772.604.818.72.272-.175.544-.641.454-.825-.137-.166-.636-.312-.954-.437-.136-.042-1.777-.62-1.817-.563.16-.408.12-.816-.121-1.056-.765.823-.363-.635-.765-.77-.161-.046-.322-.182-.483-.363 2.335-4.335 5.955-7.457 10.313-9.607.273-.04.579-.04.791-.04.478.08.825.689 1.35 1.054.08-.203-.081-.527-.202-.73.12-.325.604-.406.886-.488.363-.04.887-.119 1.21.042a8.173 8.173 0 0 0-.807-.983c-.04.033-.161.106-.201.186-.444-.318-1.29.119-1.679.278-.212.16-.398.358-.61.477-.132.082-.212.082-.375.042.852-.638 2-1.148 3.305-1.512.238.132.475.364.831.595-.237-.165-.237.716-.158.875h2.999c.347.407.347 1.015.816 1.38.468-.365-.209-.77.104-1.135.104-.163 1.041-.364 1.354-.483.364-.2-.26-.478-.417-.557-.52-.212-2.313-.311-1.562-1.072.364-.293 1.666-.133 2.083.033.6.245 1.031.655.465 1.027.316.038 1.408.373 1.191.858.13-.224.347-.56.693-.56.39.038.53.892.919 1.15.623 1.054 1.185-1.075 1.28-1-.423-.261.496-.597.89-.485.5.112 1.524 1.021.218.97 1.234.482 1.27 1.53-.35 1.49-.571-.042-.946-.952-1.251-.207-.211.245-.305.916-.885 1.318-.796.622-1.573.579-2.267.492.286.044-.613 1.033-.694 1.205-.245.3-.409.645-.49.989-.082.43 0 .903-.205 1.333.695-.215 1.062 1.118.776 1.16.858-.128 1.553-.128 2.37.172 1.043.061 1.536.309 1.676.934.094-.254.62-.13.883-.047.719.282.86.892 1.281 1.409.354.704.822 1.814 1.435 1.648.108-.08.9-.663.613-.99-.288-.346-.613-1.224-.324-1.713.288-.537.97-.683 1.15-1.366.287-1.123-.862-.977-.862-1.806 0-.382.467-.483.431-.887 0-.38-.539-1.2-.107-1.488.359-.246 2.08.164 2.403.41.323.246 1.328.574 1.4.943h-.18c.286.23.906.838.037 1 .383-.08 1.904.5 1.16.875.248-.187.455-.062.702-.312.29-.25.455-.644.826-.375.083.062.537-.918.785-.877.371.04.454.568.62.877.164.562.618.732.784 1.14.289.771.165 1.496 1.114 1.768.29.091 1.074-.408 1.033.272.165-.18.247-.317.247-.362.042.634.29 1.36.991 1.27 0 0 0 .9-.082 1.074-.248.525-.867.409-1.239.547-.124.008-1.115.472-.99.61-.538-.536-1.405-.536-2.107-.507-.743.139-1.445.23-2.147.553-.33.184-.828.33-1.412.378-.107.028-.285.77-.463.828.356-.117.658-.759 1.38-.8zm-6.843 37.041a6.482 6.482 0 0 1-.109-.73c-.054-.729.872-1.23.818-1.914-.6-.137-.763-.638-.654-1.185.109-.775.915-1.323 1.44-1.824.484-.502.59-1.55.484-2.189-.178-1.094-.178-2.234-.353-3.317.044.263.673.171.78.536.142-.319.213-.672.39-.91.143-.205.392-.273.605-.444.356-.204 1.102-.988 1.53-.511.355.409-.534.852-.072 1.227.142-.273 0-.682.284-.954.57-.614 1.27.068 2.154.238.702.17.95.375 1.486.75-.165-.136.661-.375.744-.409.784-.136 1.114.239 1.651.603.578.456 1.487.775 1.404 1.687.413.091.66.228.991.365.33.182.785.09 1.032.364-3.798 4.423-9.248 7.523-14.605 8.617z"/></svg></svg>