<svg width="72" height="67" xmlns="http://www.w3.org/2000/svg" xmlns:xlink="http://www.w3.org/1999/xlink" xmlns:svgjs="http://svgjs.com/svgjs" viewBox="0.38 0 71.24 67" fill="#3d5f12"><svg xmlns="http://www.w3.org/2000/svg" width="72" height="67" viewBox="1.129 1.028 70.168 65.992"><path paint-order="stroke fill markers" fill-rule="evenodd" d="M34.133 34.498c0 5.312-4.236 9.644-9.43 9.644s-9.43-4.332-9.43-9.644 4.236-9.64 9.43-9.64 9.43 4.328 9.43 9.64zm27.734 18.9c0 2.483-2.1 4.54-4.715 4.54-2.578 0-4.715-2.022-4.715-4.54 0-2.482 2.137-4.54 4.715-4.54 2.579 0 4.715 2.058 4.715 4.54zm0-37.898c0 2.539-2.1 4.643-4.715 4.643-2.578 0-4.715-2.068-4.715-4.643 0-2.539 2.137-4.643 4.715-4.643 2.579.282 4.715 2.418 4.715 4.996V15.5zM48 31.36c0-.515-.347-.994-.832-1.104l-5.374-.847c-.331-1.032-.773-2.026-1.252-3.02 1.031-1.437 2.136-2.763 3.194-4.2.138-.221.243-.442.243-.7 0-1.031-4.321-5.01-5.279-5.893a1.189 1.189 0 0 0-.773-.295c-.258 0-.516.074-.737.258l-4.346 3.278c-.884-.442-1.805-.847-2.763-1.142l-.847-5.636c-.074-.515-.59-.92-1.105-.92h-6.852c-.515 0-.957.368-1.105.884-.478 1.805-.663 3.83-.847 5.672-.994.332-1.915.7-2.836 1.179l-4.236-3.315a1.39 1.39 0 0 0-.774-.258c-1.068 0-5.193 4.457-5.93 5.452a1.126 1.126 0 0 0-.258.736c0 .258.11.516.258.737 1.179 1.4 2.284 2.762 3.315 4.236-.479.92-.884 1.842-1.179 2.8l-5.709.883c-.479.074-.847.627-.847 1.105v6.815c0 .516.368.994.884 1.068l5.599.884c.331 1.031.773 2.026 1.289 3.02-1.068 1.437-2.173 2.8-3.241 4.2-.148.22-.258.442-.258.7 0 1.065 4.346 4.946 5.304 5.817a1.2 1.2 0 0 0 .773.29c.258 0 .553-.073.737-.254l4.347-3.228c.884.435 1.805.834 2.762 1.124l.847 5.55c.074.508.59.906 1.105.906h6.852c.515 0 .957-.362 1.105-.87.479-1.777.663-3.772.847-5.622.994-.29 1.915-.653 2.836-1.124l4.236 3.264c.221.145.479.254.774.254 1.068 0 5.193-4.425 5.913-5.408.173-.184.243-.442.243-.7 0-.294-.104-.515-.243-.736-1.162-1.4-2.267-2.763-3.298-4.236.479-.921.884-1.842 1.179-2.8l5.482-.884c.45-.073.797-.626.797-1.105v-6.814zm23.297 19.601c0-.544-4.752-1.052-5.489-1.124a10.14 10.14 0 0 0-1.105-1.9c.332-.737 1.879-4.42 1.879-5.084a.32.32 0 0 0-.147-.258c-.442-.257-4.384-2.578-4.568-2.578l-.22.074c-1.253 1.252-2.358 2.689-3.39 4.125h-2.21c-.368-.552-3.13-4.199-3.61-4.199-.173 0-3.882 2.357-4.298 2.578a.325.325 0 0 0-.139.258c0 .626 1.456 4.347 1.768 5.083-.416.59-.763 1.248-1.04 1.9-.693.073-5.166.58-5.166 1.125v5.078c0 .544 4.473 1.052 5.166 1.124a9.26 9.26 0 0 0 1.04 1.9C49.456 59.8 48 63.52 48 64.147c0 .073.035.184.139.257.416.258 4.125 2.616 4.298 2.616.48 0 3.242-3.684 3.61-4.236h2.21c.369.552 3.131 4.236 3.61 4.236.184 0 4.126-2.358 4.568-2.616.11-.073.147-.147.147-.257 0-.868-1.547-4.552-1.879-5.289.442-.589.81-1.204 1.105-1.878.737-.07 5.489-.567 5.489-1.1v-4.919zm0-38c0-.544-4.752-1.052-5.489-1.124a10.136 10.136 0 0 0-1.105-1.9c.332-1.726 1.879-5.41 1.879-6.073a.32.32 0 0 0-.147-.258c-.442-.258-4.384-2.578-4.568-2.578l-.22.074c-1.253 1.252-2.358 2.688-3.39 4.125h-2.21c-.368-.553-3.13-4.2-3.61-4.2-.173 0-3.882 2.358-4.298 2.58a.325.325 0 0 0-.139.257c0 .626 1.456 4.347 1.768 5.083-.416.59-.763 1.253-1.04 1.916-.693.073-5.166.59-5.166 1.142v5.156c0 .553 4.473 1.069 5.166 1.142a9.1 9.1 0 0 0 1.04 1.916c-.312.736-1.768 4.457-1.768 5.083 0 .074.035.184.139.258.416.258 4.125 2.615 4.298 2.615.48 0 3.242-3.684 3.61-4.236h2.21c.369.552 3.131 4.236 3.61 4.236.184 1.126 4.126-1.231 4.568-1.49.11-.073.147-.147.147-.257 0-.663-1.547-4.347-1.879-5.083.442-.87.81-1.493 1.105-2.182.737-.072 5.489-.58 5.489-1.124V12.96z"/></svg></svg>