<svg width="59" height="65" xmlns="http://www.w3.org/2000/svg" xmlns:xlink="http://www.w3.org/1999/xlink" xmlns:svgjs="http://svgjs.com/svgjs" viewBox="0.463 0 58.073 65" fill="#7da3b7"><svg xmlns="http://www.w3.org/2000/svg" width="59" height="65" viewBox="2.866 2.292 56.944 63.736"><path paint-order="stroke fill markers" fill-rule="evenodd" d="M58.809 14.355c-.738-2.959-4.646-12.997-8.677-11.992-2.996.747-3.54 2.667-5.047 4.979-3.793 5.909-20.036 7.007-26.75 11.226C9.02 24.365 1.973 34.538 4.807 45.904c.312 1.251.73 2.476 1.248 3.637.32.68 1.72 2.343 1.8 2.664.517 2.073-5.823 6.73-4.896 10.446.187.75.49.903.962 1.43 1.373 1.405 2.327 2.343 4.574 1.783 3.103-.773 3.425-8.598 5.209-9.043 1.426-.355 5.412 1.043 7.266 1.188 3.522.298 7.196-.01 10.62-.864 5.421-1.352 10.45-4.124 14.66-7.755 8.685-7.404 14.018-16.402 13.53-28.087-.105-2.395-.416-4.72-.971-6.948zM42.276 25.857a2.371 2.371 0 0 1-1.712 2.856c-8.774 2.188-13.723 5.89-18.727 13.325-1.31 2.035-2.452 4.142-3.808 6.15-.356.545-.793.92-1.435 1.08a2.371 2.371 0 0 1-2.853-1.719c-.16-.643-.036-1.206.276-1.777 5.967-11.168 12.781-18.482 25.407-21.63a2.368 2.368 0 0 1 2.852 1.715z"/></svg></svg>